<svg role="img" viewBox="0 0 24 24" xmlns="http://www.w3.org/2000/svg" fill="#FFA116"><title>LeetCode</title><path d="M13.483 0a1.374 1.374 0 0 0-.961.438L7.116 6.226l-3.854 4.126a5.266 5.266 0 0 0-1.209 2.104 5.35 5.35 0 0 0-.125 2.508 5.244 5.244 0 0 0 1.258 2.222 5.068 5.068 0 0 0 2.223 1.251 5.232 5.232 0 0 0 2.502-.128 5.166 5.166 0 0 0 2.062-1.218l3.666-3.929a1.353 1.353 0 1 0-1.954-1.895l-3.666 3.93c-.328.352-.753.534-1.208.536a1.764 1.764 0 0 1-1.26-.554 1.762 1.762 0 0 1-.502-1.246 1.745 1.745 0 0 1 .494-1.242l3.865-4.137 5.405-5.787a1.344 1.344 0 0 0 .399-.967 1.356 1.356 0 0 0-.41-.955 1.365 1.365 0 0 0-.964-.407H13.483zm.671 18.238L8.685 24l-3.682-3.946-1.579 1.692 3.682 3.946a3.633 3.633 0 0 0 2.65 1.053 3.626 3.626 0 0 0 2.645-1.042l5.46-5.85z"/><path d="M12.923 13.916a1.361 1.361 0 0 0-.958.4 1.35 1.35 0 0 0-.401.966c0 .362.14.712.395.96a1.358 1.358 0 0 0 .964.402h4.59v1.545h-4.59a2.915 2.915 0 0 1-2.072-.857 2.899 2.899 0 0 1-.853-2.06 2.87 2.87 0 0 1 .851-2.054 2.897 2.897 0 0 1 2.062-.862h6.12l-1.58-1.692h-4.54zm5.82 2.274l1.58 1.692h-7.4v-1.692h5.82z"/></svg>
